<?xml version="1.0" standalone="no"?><!DOCTYPE svg PUBLIC "-//W3C//DTD SVG 1.1//EN" "http://www.w3.org/Graphics/SVG/1.1/DTD/svg11.dtd"><svg class="icon" width="200px" height="200.00px" viewBox="0 0 1024 1024" version="1.1" xmlns="http://www.w3.org/2000/svg"><path fill="#333333" d="M512.222996 1023.970233C228.57747 1020.993578 0.446573 797.416964 0.238207 511.985444 0.029841 229.709179 224.85665 0.447153 511.776498 0.000655c284.717123-0.446498 511.984789 227.684398 511.984789 511.508524C1023.612454 796.375135 796.225722 1020.993578 512.222996 1023.970233z m438.401859-511.984789c0.148833-242.329545-196.072314-439.026957-438.163726-439.205556S73.374639 268.941502 73.255573 510.943615s196.161614 439.116256 438.163726 439.294855S950.476023 754.017323 950.624855 511.985444z"  /><path fill="#333333" d="M665.699367 634.445062H271.679445c-25.867138 0-42.268512-15.895342-40.869483-39.143023a35.719869 35.719869 0 0 1 29.766557-32.743214 164.519763 164.519763 0 0 1 23.277448-1.666927h456.47016a162.317038 162.317038 0 0 1 22.146318 1.607394A36.106834 36.106834 0 0 1 783.09867 623.014704q-72.689933 72.898299-145.856132 145.528699a35.005472 35.005472 0 0 1-50.603148-0.565564c-14.079582-14.317714-14.139115-36.702165 0.803697-52.061709 23.039316-23.664413 46.644196-46.793028 69.921644-70.189543 2.708757-2.76829 6.280744-5.060315 8.334636-11.281525zM358.240594 388.722129h392.978093c12.412654 0 23.575114 2.381325 32.177648 12.085223a34.172008 34.172008 0 0 1 8.12627 34.112475c-4.018485 13.335418-12.918686 22.563051-26.968501 25.33134a114.750079 114.750079 0 0 1-22.116552 2.053893q-232.179149 0.178599-464.358297 0c-10.775494 0-21.521221-0.416732-31.04652-6.697476-18.633865-12.263822-22.890483-38.428626-7.26304-54.234668q73.493631-74.416394 148.148157-147.910024c12.79962-12.591254 32.743213-12.174522 46.852562-0.625098a36.136601 36.136601 0 0 1 8.304869 45.394001 67.837985 67.837985 0 0 1-10.448061 12.918686c-21.937953 22.146319-44.084272 44.114038-66.051992 66.23059-2.798056 2.827823-6.429576 5.090081-8.334636 11.341058z"  /></svg>