<?xml version="1.0" standalone="no"?><!DOCTYPE svg PUBLIC "-//W3C//DTD SVG 1.1//EN" "http://www.w3.org/Graphics/SVG/1.1/DTD/svg11.dtd"><svg t="1662107895089" class="icon" viewBox="0 0 1024 1024" version="1.1" xmlns="http://www.w3.org/2000/svg" p-id="988" xmlns:xlink="http://www.w3.org/1999/xlink" width="200" height="200"><path d="M230.793837 458.431917c-36.153937 0-71.946334 0.723079-107.919501 0C57.857506 456.744733 10.857389 417.879252 5.976607 353.344475a1437.902318 1437.902318 0 0 1 1.687184-260.187831C11.761237 54.712958 54.543396 11.026951 92.987082 6.929505A1402.109921 1402.109921 0 0 1 359.080056 6.025656C416.685328 10.605155 457.237994 56.460398 458.864921 114.849006c1.988467 76.827115 2.169236 153.835001 0 230.662116-2.048723 63.691185-50.314229 109.847711-114.487466 112.438743-37.901377 1.566671-75.86301 0-113.824644 0zM86.599886 226.624926v107.678475c-0.361539 28.260327 12.955161 43.444981 41.094975 43.62575 69.777098 0.421796 139.554196 0.542309 209.39155 0 25.910321 0 41.456514-15.24491 41.757797-41.155231 0.783335-70.741203 0.602566-141.542662 0-212.344121 0-24.88596-14.100035-38.564199-39.709074-38.564199H123.778184c-26.753913 0-37.479581 13.738496-37.118041 39.287277 0.301283 33.683418-0.060257 67.668118-0.060257 101.472049zM791.059342 458.492174c-34.948805 0-69.897611 0.662822-104.846416 0-72.307873-1.687184-119.488761-49.048841-120.513122-121.597741q-1.265388-106.413087 0-212.826174c0.662822-68.632223 39.588561-114.487466 108.46181-119.609273 78.333529-6.025656 157.691421-2.591032 236.567259-0.964105 55.37578 1.144875 109.787454 53.869366 110.631046 113.402848 1.084618 75.86301 3.133341 151.967047-0.361539 227.709544-3.133341 69.897611-52.242439 112.740026-122.200306 113.945157-35.792397 0.482052-71.765564-0.060257-107.738732-0.060256z m2.048723-80.321996c35.009062 0 69.957867 0.542309 104.906673 0 27.476992-0.542309 43.324467-16.389785 43.746264-43.143698 1.084618-68.933506 0.903848-137.867012 0-206.740261 0-26.512887-13.13593-42.721902-42.661646-42.179593-69.957867 0.602566-139.855478 0.482052-209.753089 0-28.501353 0-43.143698 13.196187-43.324467 41.396257 0 68.873249-0.723079 137.806755 0 206.740262 0.421796 30.128281 15.365423 43.686007 45.011651 44.348829 34.16547 0.120513 68.150171-0.421796 102.074614-0.421796zM233.324612 564.784748c36.153937 0 72.307873-0.783335 107.919501 0 68.812993 1.807697 116.475933 48.747558 117.801577 117.861833 1.385901 72.910439 1.205131 145.881135 0 218.791574-0.964105 63.028363-39.76933 111.293868-102.436153 116.596445a1286.47758 1286.47758 0 0 1-257.114747-1.325644A107.136166 107.136166 0 0 1 6.940712 921.202307a1456.822879 1456.822879 0 0 1-0.482052-254.282688c5.182064-61.461692 51.33859-100.206661 113.161822-101.893845 37.961634-1.084618 75.742497-0.241026 113.70413-0.241026z m145.820878 227.830057c0-32.960339 0.421796-65.920678 0-98.881017s-13.979522-48.205249-47.060374-48.566788q-100.327174-1.144875-200.714605 0c-33.683418 0.361539-44.348829 11.629516-44.589855 45.855243q-0.723079 101.833588 0 203.727433c0 33.382135 11.328233 45.674473 44.770625 46.216783q100.447687 1.626927 200.774861 0c31.935977-0.421796 46.096269-16.329528 46.759092-49.530894s0-65.920678 0.060256-98.82076zM920.128896 790.08403v-152.750383a197.762034 197.762034 0 0 1 2.229493-32.719313c3.735907-21.451336 13.738496-38.323173 38.20266-38.925738 26.091091-0.662822 36.877015 16.570554 40.853948 39.347534a197.762034 197.762034 0 0 1 2.169236 32.719313v311.526421a122.381076 122.381076 0 0 1-5.543603 44.288573 38.323173 38.323173 0 0 1-72.789926-0.421796 116.897729 116.897729 0 0 1-5.362834-41.336001q0.361539-80.804048 0.241026-161.72861zM663.737229 819.971284c0 49.832176 0.361539 99.724609 0 149.556785 0 30.791103-16.389785 50.736024-39.106509 50.494998s-40.191126-20.246205-40.432152-50.494998q-1.024362-149.617041 0-299.11357c0-31.935977 16.450041-48.205249 41.69754-47.421913s37.479581 16.389785 37.780864 47.421913c0.361539 49.832176 0.060257 99.724609 0.060257 149.556785zM752.736169 876.371425c0-30.911616-1.084618-61.883488 0-92.795104 1.446157-32.116747 17.233376-50.555255 41.034719-49.048841 28.38084 1.807697 40.251383 21.571849 40.733435 46.759092 1.205131 63.811698 1.385901 127.74391 0 191.555608-0.602566 25.066729-14.220548 46.216782-41.637284 46.277039s-39.046252-21.451336-39.9501-46.939862c-1.084618-31.875721 0-63.871955 0-95.807932z" p-id="989"></path></svg>