<?xml version="1.0" standalone="no"?><!DOCTYPE svg PUBLIC "-//W3C//DTD SVG 1.1//EN" "http://www.w3.org/Graphics/SVG/1.1/DTD/svg11.dtd"><svg t="1662108118388" class="icon" viewBox="0 0 1024 1024" version="1.1" xmlns="http://www.w3.org/2000/svg" p-id="1131" xmlns:xlink="http://www.w3.org/1999/xlink" width="200" height="200"><path d="M557.539226 0c19.885309 11.237202 27.439057 26.291315 21.94057 43.774372-2.05526 6.539464-6.539464 11.53081-10.836827 16.602231-7.019915 8.301116-14.013137 16.628923-21.967261 26.104473 22.58117 3.656762 43.774372 5.338338 64.27359 10.676676 165.488479 43.320613 274.764258 146.617454 318.778855 311.678866 38.169117 142.720467 3.46992 271.988322-92.620164 384.226879-43.881139 51.301428-98.358878 88.296111-160.977583 113.279533-16.682306 6.672923-32.563862 2.669169-42.226254-9.956-14.199979-18.684183-7.153373-44.06798 15.64133-53.383381a361.619018 361.619018 0 0 0 79.327703-43.827755c81.32958-60.937129 130.175373-141.786258 143.227609-242.440621 23.889063-184.30612-105.165259-359.857366-288.110103-394.156188-7.847357-1.468043-15.694714-2.882703-23.622145-3.843604-2.669169-0.3203-6.592847-1.948493-8.007508 1.441351-1.201126 2.669169 2.108644 4.510896 3.763529 6.459389 4.964654 5.84548 10.062767 11.557502 15.054113 17.376291 13.345845 15.507872 11.85111 36.647691-3.576686 49.726618-14.493588 12.251486-35.099573 10.356376-48.045043-4.857887-23.782296-27.839433-47.511208-55.758941-70.91982-83.891982-14.493588-17.429674-14.199979-32.990929 0.453758-50.233761 22.874778-26.878532 45.96309-53.54353 68.837869-80.422062A59.202169 59.202169 0 0 1 535.49189 0zM473.140102 865.611511l-21.566885-24.823272c-14.360129-16.628923-13.559379-37.368366 1.948493-50.714211 14.893963-12.651861 36.647691-9.79585 50.340528 6.459389 21.353352 25.223647 42.706704 50.287144 63.846522 75.510791 6.806381 8.007507 14.039829 16.015014 14.600355 27.625899a37.368366 37.368366 0 0 1-9.448859 27.492441c-24.022521 28.10635-47.778125 56.37285-71.854029 84.399124a34.058597 34.058597 0 1 1-52.155563-43.827755c6.566156-8.007507 13.345845-15.748097 19.938693-23.675529 1.681576-2.001877 4.804504-3.763528 4.11052-6.486081-0.854134-3.283078-4.510896-1.89511-6.939839-2.162027-57.146909-6.219164-111.864873-21.00636-162.285476-49.005943C183.161581 819.434887 108.665074 718.006464 85.576762 581.878845c-22.154103-130.789282 12.651861-247.325201 97.905119-348.37994A402.08362 402.08362 0 0 1 337.973383 121.233657c20.072151-8.407882 40.037535-1.147743 47.698051 17.109373s-1.040976 37.368366-21.033052 46.283391C246.554345 237.556042 173.926256 327.613805 151.612003 454.879783c-18.230424 104.097591 10.062767 198.159107 76.1247 279.99583 58.481493 72.49463 135.273486 114.587426 227.199667 129.18778 0.640601 0 1.307893 0.213534 1.975185 0.266917z" p-id="1132"></path></svg>