<svg xml:space="preserve" style="enable-background:new 0 0 1024 1024;" viewBox="0 0 1024 1024" y="0px" x="0px" xmlns:xlink="http://www.w3.org/1999/xlink" xmlns="http://www.w3.org/2000/svg" id="图层_1" version="1.1">
<style type="text/css">
	.st0{fill:#C5B5B6;}
	.st1{fill:#DCD3D4;}
	.st2{fill:#F3B5AF;}
	.st3{fill:#F2463E;}
	.st4{fill:#4966A2;}
	.st5{fill:#FFFFFF;}
	.st6{fill:#3D5890;}
	.st7{fill:#E08476;}
	.st8{fill:#142546;}
</style>
<path d="M660.8,111.2h-295c-8.6,0-16.8,3.8-22.4,10.4L179.8,315.1c-4.5,5.3-6.9,12-6.9,18.9v366.5
	c0,74.5,60.4,134.9,134.9,134.9h0h410.9c74.5,0,134.9-60.4,134.9-134.9v0V334c0-6.9-2.5-13.6-6.9-18.9L683.2,121.6
	C677.6,115,669.4,111.2,660.8,111.2L660.8,111.2z" class="st0"></path>
<path d="M663.1,108.4H346.3c-9.2,0-17.9,4.3-23.5,11.7L178.7,312.8c-3.8,5.1-5.8,11.2-5.8,17.6v367.5
	c0,74.5,60.4,134.9,134.9,134.9c0,0,0,0,0,0h333c74.5,0,134.9-60.4,134.9-134.9c0,0,0,0,0,0l2.9-458.6c0-6.3-2-12.5-5.8-17.6
	l-86.2-101.4C681.1,112.8,672.4,108.4,663.1,108.4z" class="st1"></path>
<path d="M311.7,736.3l-54.1-54.1c-21.1-21.1-55.3-21.1-76.4,0l-7.2,7.2c-2,13-1.8,26.2,0.6,39.1
	c6.9,36.9,30.3,59.2,38.3,66.8c43.2,41.3,100.9,39.2,112.6,38.5c3.1-5.1,5.5-10.6,7-16.4c4.3-13.9,5.1-28.7,2.3-43.1
	c-1.1-5.6-2.3-11.2-3.3-16.9" class="st0"></path>
<path d="M579.1,908.4H450c-10.2,0-18.5-8.3-18.5-18.5c0,0,0-0.1,0-0.1v-57.1h166.2v57.1c0.1,10.2-8.2,18.5-18.4,18.6
	C579.3,908.4,579.2,908.4,579.1,908.4z" class="st2"></path>
<path d="M764.3,683.1l-72.7,51c-5,3.5-11.8,2.3-15.3-2.7l-20-28.7c-3.5-5-2.3-11.8,2.7-15.3c0,0,0,0,0,0l72.7-51
	c5-3.5,11.8-2.3,15.3,2.7l20,28.6c3.5,4.9,2.4,11.8-2.6,15.3C764.4,683.1,764.3,683.1,764.3,683.1L764.3,683.1z" class="st3"></path>
<path d="M488.9,51.6h56c13.9,0,25.1,11.2,25.1,25.1v0v31.7H463.7V76.7C463.7,62.9,475,51.6,488.9,51.6L488.9,51.6z" class="st4"></path>
<path d="M802.8,124.7l63.8,75.5c11.8,13.9,10.1,34.7-3.8,46.5l-31.2,26.2c-4.6,3.9-11.6,3.3-15.5-1.3L724,162.5
	c-3.9-4.6-3.3-11.6,1.3-15.5l31.1-26.3C770.3,109.1,791,110.8,802.8,124.7z M228.5,124.7l-63.8,75.5c-11.8,13.9-10,34.7,3.9,46.5
	l31.1,26.2c4.6,3.9,11.6,3.3,15.5-1.3l92.2-109.1c3.9-4.6,3.3-11.6-1.3-15.5L275,120.8C261.1,109,240.3,110.8,228.5,124.7
	C228.5,124.7,228.5,124.7,228.5,124.7z" class="st2"></path>
<path d="M694.1,254.4c95.7,97.8,94,254.6-3.7,350.3s-254.6,94-350.3-3.7s-94-254.6,3.7-350.3
	c87.7-85.9,225.2-94.6,323-20.3" class="st5"></path>
<path d="M374.8,567.9c77.2,77.2,202.4,77.2,279.6,0s77.2-202.4,0-279.6s-202.4-77.2-279.6,0S297.6,490.7,374.8,567.9z" class="st6"></path>
<path d="M312.9,428.9c0,109.2,72.3,197.7,161.7,197.8c89.3,0,161.8-88.4,161.8-197.6c0-0.1,0-0.1,0-0.2
	c0-109.2-72.4-197.7-161.8-197.7S312.9,319.7,312.9,428.9z" class="st4"></path>
<path d="M676.3,541.5H352.5c0,0-37.1-52.7-36.9-87.7c0.2-28.2,3.5-56.2,9.8-83.6h378c5.4,26.6,8.3,53.7,8.6,80.8
	C712.4,486.4,689.7,519.5,676.3,541.5z" class="st7"></path>
<path d="M667.2,500.2h-76.8v-86h76.8L667.2,500.2z M618.2,472.5h21.4v-30.6h-21.4L618.2,472.5z M439.7,500.2h-76.8v-86
	h76.8V500.2z M390.6,472.5H412v-30.6h-21.4V472.5z M573.5,500.2h-76.8v-86h76.8V500.2z M524.5,472.5h21.4v-30.6h-21.4V472.5z
	 M454.8,421.6h26.9v26.9h-26.9V421.6z M454.8,466.5h26.9v26.9h-26.9V466.5z" class="st5"></path>
<path d="M514.4,690c-144.6-1.4-260.8-119.7-259.4-264.4c1.3-142.7,116.7-258.1,259.4-259.4
	c57.1-0.2,112.8,18.5,158.2,53.1l-16.8,22.1c-40.6-31-90.4-47.7-141.5-47.6c-129.4,0-234.3,104.8-234.3,234.1
	s104.8,234.3,234.1,234.3c129.4,0,234.3-104.8,234.3-234.1c0-61.3-24-120.2-66.9-164l19.8-19.4C802.7,348,801,513.8,697.7,615.1
	C648.8,663.1,583,689.9,514.4,690L514.4,690z" class="st8"></path>
<path d="M514.4,742c-52.1,0-103.3-13-149.1-37.8l13.2-24.4c65.9,35.6,143.2,44,215.2,23.2l7.7,26.6
	C573.1,737.9,543.8,742,514.4,742L514.4,742z M685.7,749.6c-8.1,0-15.7-3.9-20.4-10.6l-20.1-28.6c-7.9-11.2-5.2-26.7,6.1-34.6
	c0,0,0,0,0,0l72.7-50.9c11.2-7.9,26.7-5.2,34.6,6.1c0,0,0,0,0,0l20,28.6c7.9,11.3,5.1,26.7-6.1,34.6L700,745.1
	C695.8,748,690.8,749.6,685.7,749.6L685.7,749.6z M669.6,696.9l16.8,23.9l68.1-47.7l-16.7-23.9L669.6,696.9z M514.4,216.5
	c-116.8,0-211.5,94.7-211.5,211.5s94.7,211.5,211.5,211.5s211.5-94.7,211.5-211.5c0,0,0,0,0-0.1
	C725.7,311.3,631.1,216.7,514.4,216.5z M514.4,244.2c73.7,0.1,140.3,44.1,169.2,112H345.2C374.1,288.4,440.6,244.3,514.4,244.2z
	 M514.4,611.9c-50,0-97.9-20.4-132.5-56.6h264.9C612.2,591.5,564.4,611.9,514.4,611.9z M668.8,527.7H360
	c-27.6-42.5-36.3-94.6-24-143.7h356.9C705,433.1,696.3,485.1,668.8,527.7z" class="st8"></path>
<path d="M445.2,295.7h80.4v27.7h-80.4V295.7z M554.6,295.7h28.9v27.7h-28.9V295.7z" class="st8"></path>
<path d="M876,193l-63.8-75.5c-16.7-19.7-46.2-22.2-66-5.5l-28.9,24.5l-22.4-26.5c-8.2-9.7-20.2-15.3-32.8-15.3h-80.6
	V76.8c0-21.5-17.5-39-39.1-38.9c0,0,0,0,0,0h-56c-21.5,0-38.9,17.5-39,39v17.8h-80.6c-12.7,0-24.8,5.6-33,15.3l-21.5,25.4L283,110.5
	c-19.8-16.7-49.3-14.2-66,5.5l-63.8,75.5c-16.7,19.8-14.2,49.3,5.5,66l29.4,24.9l-17.8,21c-6.6,7.8-10.2,17.7-10.2,27.9v366.6
	c0.1,82.1,66.6,148.7,148.7,148.8h108.5v11.2c-43.8,6.9-76.1,44.7-76.2,89v25c0.1,49.7,40.3,89.9,90,90h171.3
	c49.7-0.1,89.9-40.3,90-90v-25c0-46.4-35.2-85.1-81.3-89.7v-10.6h108.5c82.1-0.1,148.7-66.6,148.8-148.8V331.3
	c0.1-10.2-3.5-20.1-10-27.9l-16.9-20l28.9-24.5C890.2,242.2,892.7,212.7,876,193C876,192.9,876,192.9,876,193L876,193z M169.8,223.3
	c-0.4-5,1.2-10,4.5-13.9l63.8-75.5c3.2-3.9,7.9-6.4,13-6.8h1.6c4.5,0,8.9,1.7,12.3,4.6l28.9,24.4l-88.5,104.7l-28.9-24.5
	C172.7,233.1,170.2,228.4,169.8,223.3z M475.1,76.8c0-6.2,5.1-11.2,11.3-11.2h56c6.2,0,11.3,5,11.3,11.3v17.8h-78.5L475.1,76.8z
	 M665,946.8v25c-0.1,34.4-27.9,62.3-62.3,62.3H431.3c-34.4-0.1-62.2-27.9-62.3-62.3v-25c0-29.1,20.1-54.3,48.5-60.8v3.8
	c0,17.9,14.5,32.4,32.3,32.4h129.2c17.9-0.1,32.3-14.6,32.3-32.4v-4.8C642,889.4,664.9,915.7,665,946.8z M583.6,889.8
	c0.1,2.5-2,4.7-4.5,4.7c0,0-0.1,0-0.1,0H449.8c-2.6-0.1-4.6-2.2-4.6-4.7v-43.3h138.5L583.6,889.8z M840.9,697.8
	c-0.1,66.8-54.2,121-121.1,121.1h-373c11.4-22,9.9-48.5-3.9-69.1l-23,15.5c10.7,15.9,8.6,37.2-4.9,50.8l-2.8,2.7h-3.5
	c-66.8-0.1-121-54.2-121.1-121.1v-2.6l3.2-3.2c15.7-15.7,41.1-15.7,56.9,0l54.1,54.2l19.6-19.6l-54.1-54.1
	c-21-21-53.3-25.9-79.6-12.1V331.3c0-3.7,1.3-7.2,3.7-10L355,127.8c2.9-3.5,7.3-5.5,11.8-5.5H662c4.6,0,8.9,2,11.8,5.5l163.6,193.6
	c2.4,2.8,3.7,6.3,3.6,10L840.9,697.8z M859.4,224.8c-0.4,5.1-2.8,9.7-6.7,13l-28.9,24.4l-88.6-104.7l28.9-24.4
	c8.1-6.8,20.2-5.8,27,2.3c0,0,0,0,0,0l63.8,75.5C858.2,214.8,859.8,219.8,859.4,224.8L859.4,224.8z" class="st8"></path>
</svg>
